<svg id="e5lTa1nyrDL1" xmlns="http://www.w3.org/2000/svg" xmlns:xlink="http://www.w3.org/1999/xlink" viewBox="0 0 300 200" shape-rendering="geometricPrecision" text-rendering="geometricPrecision" project-id="30f913c192bb412bbafd4ad806c45175" export-id="69f86eba1cbf452ca13ec5e92878765a" cached="false"><g transform="matrix(.1 0 0-.1 0 200)"><path d="M968,1748c-135-146-252-283-466-545C321,981,264,922,248,938c-14,14,11,98,67,230c26,62,45,116,42,119-8,7-121-167-196-302-33-60-61-107-61-103c0,3,41,93,91,200c139,296,144,307,131,320-8,8-31-31-87-148C99,970,41,823,55,800c11-18,22-3,80,108c63,117,165,292,171,292c3,0-3-17-12-37-33-77-64-169-64-194c0-15,6-32,14-38c22-19,52,6,153,127c49,59,167,201,263,316c95,115,229,266,297,335l124,126-61-115c-121-227-317-628-379-774C503,621,380,264,380,188c0-42,20-59,45-38c19,16,19,34,0,26-23-8-19,21,16,129c80,252,239,621,479,1115c174,358,190,394,190,421c0,43-41,16-142-93Z" fill="#fff"/><path d="M1567,1703c-18-32-38-71-44-88-6-16-47-93-90-170-78-139-79-140-122-148-23-5-45-6-48-3s34,70,81,150s86,147,86,150c0,33-69-58-158-210-63-106-68-110-166-124-59-9-86-17-86-27c0-15,86-19,92-5c6,16,56,23,61,8c3-7-21-64-53-127-67-131-157-342-167-389-11-56,17-30,38,35c25,75,225,479,248,498c9,8,35,18,58,22l43,7-141-289c-77-158-148-303-157-322-16-32-24-36-147-72-71-20-152-46-180-56-55-21-68-47-22-49c15-1,27,4,27,11c0,13,84,47,223,89l77,24v-29c0-40,21-37,56,11c27,37,35,40,134,64c287,68,747,135,964,139c52,1,91,6,89,11-18,29-695-56-1025-128-60-13-108-22-108-20s35,52,78,111s114,160,156,223c43,63,80,117,82,119c3,3-7-21-21-52-26-60-31-87-16-87c5,0,16,12,26,26c9,14,33,44,53,66l37,41l5-28c7-39,32-53,64-35c20,10,31,11,51,2c26-12,81-6,91,9c8,14,24,10,24-5c0-25,21-29,42-8c17,16,24,18,39,9c14-9,22-7,39,8c18,16,35,18,143,16c67-1,178,5,247,13c208,25,687,101,654,104-17,2-109-9-205-23-385-57-461-66-630-72-127-4-178-3-183,6-10,15-26,14-26-2c0-7-5-18-12-25-9-9-14-7-24,6-11,16-14,15-38-7l-26-25l11,33c15,42,4,52-24,19s-58-48-96-48c-35,0-48,15-30,36c9,11,9,18,1,26-9,9-14,4-22-19-11-31-55-60-65-43-3,5-3,27,1,49c4,23,3,41-3,41-5,0-26-18-48-40-21-22-40-38-42-36-6,5,94,202,157,310c57,100,60,107,44,113-7,2-44-53-84-124-137-241-282-459-425-640-60-77-85-98-85-73c0,5,71,150,158,322c152,303,158,313,192,322s34,10,9,15c-26,6-26,6,88,211c62,112,113,210,113,217c0,31-32,8-63-44Z" fill="#fff"/><path d="M1090,1154c-79-79-156-133-169-118-5,5-11,22-15,38-6,23-4,27,8,23c9-4,16-2,16,4c0,35-99-7-115-49-10-27,10-33,39-11l27,22l15-22c20-28,43-27,90,5c60,40,202,184,182,184-2,0-37-34-78-76Z" fill="#fff"/><path d="M2348,803c7-3,16-2,19,1c4,3-2,6-13,5-11,0-14-3-6-6Z"/></g></svg>
